<?xml version="1.0" encoding="UTF-8"?>
<svg xmlns="http://www.w3.org/2000/svg" id="Layer_1" data-name="Layer 1" viewBox="0 0 24 24" width="512" height="512"><path d="m19.847,17.142c-1.39-1.742-3.271-2.992-5.092-4.072-.236-.14-.545-.062-.685.175-.142.237-.062.544.175.685,1.651.979,3.048,1.959,4.14,3.07H5.565c1.74-1.837,4.168-3.182,6.677-4.562,4.798-2.64,9.759-5.37,9.759-11.938,0-.276-.224-.5-.5-.5s-.5.224-.5.5c0,.53-.047,1.023-.115,1.5H3.104c-.066-.475-.104-.972-.104-1.5,0-.276-.224-.5-.5-.5s-.5.224-.5.5c0,2.699.856,4.718,2.125,6.323.01.011.017.025.027.035,1.39,1.742,3.271,2.992,5.092,4.072.08.047.168.07.255.07.17,0,.337-.087.43-.245.142-.237.062-.544-.175-.685-1.651-.979-3.048-1.959-4.14-3.07h12.82c-1.74,1.837-4.168,3.182-6.677,4.562-4.798,2.64-9.759,5.37-9.759,11.938,0,.276.224.5.5.5s.5-.224.5-.5c0-.53.047-1.023.115-1.5h17.782c.066.475.104.972.104,1.5,0,.276.224.5.5.5s.5-.224.5-.5c0-2.699-.856-4.718-2.125-6.323-.01-.011-.017-.025-.027-.035ZM4.746,6c-.671-.887-1.162-1.869-1.449-3h17.392c-.29,1.136-.771,2.126-1.41,3H4.746Zm-1.435,15c.29-1.136.771-2.126,1.41-3h14.534c.671.887,1.162,1.869,1.449,3H3.311Z"/></svg>
